<mxfile host="app.diagrams.net" agent="Mozilla/5.0 (Windows NT 10.0; Win64; x64; rv:136.0) Gecko/20100101 Firefox/136.0" version="25.0.3">
  <diagram name="Page-1" id="Hpaa9rXrFd2Z7ZSVqcZT">
    <mxGraphModel dx="1434" dy="780" grid="1" gridSize="10" guides="1" tooltips="1" connect="1" arrows="1" fold="1" page="1" pageScale="1" pageWidth="850" pageHeight="1100" math="0" shadow="0">
      <root>
        <mxCell id="0" />
        <mxCell id="1" parent="0" />
        <mxCell id="S3ELQyczgTXHeuaoMsCH-3" value="" style="endArrow=none;dashed=1;html=1;dashPattern=1 3;strokeWidth=2;rounded=0;entryX=0.935;entryY=0.531;entryDx=0;entryDy=0;entryPerimeter=0;" edge="1" parent="1" target="S3ELQyczgTXHeuaoMsCH-1">
          <mxGeometry width="50" height="50" relative="1" as="geometry">
            <mxPoint x="440" y="359" as="sourcePoint" />
            <mxPoint x="450" y="380" as="targetPoint" />
          </mxGeometry>
        </mxCell>
        <mxCell id="S3ELQyczgTXHeuaoMsCH-1" value="&lt;b&gt;&lt;font style=&quot;font-size: 18px;&quot;&gt;Colab Instance&lt;/font&gt;&lt;/b&gt;" style="ellipse;shape=cloud;whiteSpace=wrap;html=1;" vertex="1" parent="1">
          <mxGeometry x="150" y="290" width="200" height="130" as="geometry" />
        </mxCell>
        <mxCell id="S3ELQyczgTXHeuaoMsCH-4" value="" style="endArrow=none;dashed=1;html=1;dashPattern=1 3;strokeWidth=2;rounded=0;" edge="1" parent="1">
          <mxGeometry width="50" height="50" relative="1" as="geometry">
            <mxPoint x="440" y="160" as="sourcePoint" />
            <mxPoint x="440" y="360" as="targetPoint" />
          </mxGeometry>
        </mxCell>
        <mxCell id="S3ELQyczgTXHeuaoMsCH-5" value="" style="endArrow=none;dashed=1;html=1;dashPattern=1 3;strokeWidth=2;rounded=0;" edge="1" parent="1">
          <mxGeometry width="50" height="50" relative="1" as="geometry">
            <mxPoint x="60" y="160" as="sourcePoint" />
            <mxPoint x="440" y="160" as="targetPoint" />
          </mxGeometry>
        </mxCell>
        <mxCell id="S3ELQyczgTXHeuaoMsCH-6" value="" style="endArrow=none;dashed=1;html=1;dashPattern=1 3;strokeWidth=2;rounded=0;" edge="1" parent="1">
          <mxGeometry width="50" height="50" relative="1" as="geometry">
            <mxPoint x="60" y="160" as="sourcePoint" />
            <mxPoint x="60" y="360" as="targetPoint" />
          </mxGeometry>
        </mxCell>
        <mxCell id="S3ELQyczgTXHeuaoMsCH-7" value="" style="endArrow=none;dashed=1;html=1;dashPattern=1 3;strokeWidth=2;rounded=0;exitX=0.16;exitY=0.55;exitDx=0;exitDy=0;exitPerimeter=0;" edge="1" parent="1" source="S3ELQyczgTXHeuaoMsCH-1">
          <mxGeometry width="50" height="50" relative="1" as="geometry">
            <mxPoint x="400" y="430" as="sourcePoint" />
            <mxPoint x="60" y="360" as="targetPoint" />
          </mxGeometry>
        </mxCell>
        <mxCell id="S3ELQyczgTXHeuaoMsCH-8" value="&lt;div&gt;&lt;font style=&quot;font-size: 18px;&quot;&gt;PXE Boot server&lt;/font&gt;&lt;/div&gt;&lt;div&gt;&lt;br&gt;&lt;/div&gt;" style="shape=cylinder3;whiteSpace=wrap;html=1;boundedLbl=1;backgroundOutline=1;size=15;" vertex="1" parent="1">
          <mxGeometry x="300" y="187.5" width="110" height="110" as="geometry" />
        </mxCell>
        <mxCell id="S3ELQyczgTXHeuaoMsCH-10" value="&lt;font style=&quot;font-size: 18px;&quot;&gt;Google Drive with system images&lt;/font&gt;" style="shape=cylinder3;whiteSpace=wrap;html=1;boundedLbl=1;backgroundOutline=1;size=15;" vertex="1" parent="1">
          <mxGeometry x="90" y="185" width="120" height="115" as="geometry" />
        </mxCell>
        <mxCell id="S3ELQyczgTXHeuaoMsCH-13" value="" style="shape=flexArrow;endArrow=classic;html=1;rounded=0;" edge="1" parent="1" source="S3ELQyczgTXHeuaoMsCH-1" target="S3ELQyczgTXHeuaoMsCH-14">
          <mxGeometry width="50" height="50" relative="1" as="geometry">
            <mxPoint x="400" y="490" as="sourcePoint" />
            <mxPoint x="440" y="480" as="targetPoint" />
          </mxGeometry>
        </mxCell>
        <mxCell id="S3ELQyczgTXHeuaoMsCH-11" value="&lt;div&gt;&lt;font style=&quot;font-size: 36px;&quot;&gt;+&lt;/font&gt;&lt;/div&gt;" style="text;html=1;align=center;verticalAlign=middle;whiteSpace=wrap;rounded=0;" vertex="1" parent="1">
          <mxGeometry x="220" y="220" width="60" height="30" as="geometry" />
        </mxCell>
        <mxCell id="S3ELQyczgTXHeuaoMsCH-14" value="TAILSCALE&lt;br&gt;Router" style="rhombus;whiteSpace=wrap;html=1;" vertex="1" parent="1">
          <mxGeometry x="195" y="520" width="110" height="100" as="geometry" />
        </mxCell>
        <mxCell id="S3ELQyczgTXHeuaoMsCH-17" value="" style="endArrow=classic;startArrow=classic;html=1;rounded=0;exitX=1;exitY=0.5;exitDx=0;exitDy=0;entryX=0;entryY=0;entryDx=0;entryDy=0;" edge="1" parent="1" source="S3ELQyczgTXHeuaoMsCH-14" target="S3ELQyczgTXHeuaoMsCH-27">
          <mxGeometry width="50" height="50" relative="1" as="geometry">
            <mxPoint x="400" y="560" as="sourcePoint" />
            <mxPoint x="400" y="640" as="targetPoint" />
          </mxGeometry>
        </mxCell>
        <mxCell id="S3ELQyczgTXHeuaoMsCH-18" value="" style="endArrow=classic;startArrow=classic;html=1;rounded=0;exitX=0.5;exitY=1;exitDx=0;exitDy=0;entryX=0.5;entryY=0;entryDx=0;entryDy=0;" edge="1" parent="1" source="S3ELQyczgTXHeuaoMsCH-14" target="S3ELQyczgTXHeuaoMsCH-25">
          <mxGeometry width="50" height="50" relative="1" as="geometry">
            <mxPoint x="315" y="580" as="sourcePoint" />
            <mxPoint x="250" y="700" as="targetPoint" />
          </mxGeometry>
        </mxCell>
        <mxCell id="S3ELQyczgTXHeuaoMsCH-19" value="" style="endArrow=classic;startArrow=classic;html=1;rounded=0;exitX=0;exitY=0.5;exitDx=0;exitDy=0;entryX=0.5;entryY=0;entryDx=0;entryDy=0;" edge="1" parent="1" source="S3ELQyczgTXHeuaoMsCH-14" target="S3ELQyczgTXHeuaoMsCH-23">
          <mxGeometry width="50" height="50" relative="1" as="geometry">
            <mxPoint x="260" y="630" as="sourcePoint" />
            <mxPoint x="90" y="650" as="targetPoint" />
          </mxGeometry>
        </mxCell>
        <mxCell id="S3ELQyczgTXHeuaoMsCH-20" value="" style="endArrow=classic;startArrow=classic;html=1;rounded=0;exitX=1;exitY=1;exitDx=0;exitDy=0;entryX=0;entryY=0;entryDx=0;entryDy=0;" edge="1" parent="1" source="S3ELQyczgTXHeuaoMsCH-14" target="S3ELQyczgTXHeuaoMsCH-26">
          <mxGeometry width="50" height="50" relative="1" as="geometry">
            <mxPoint x="270" y="640" as="sourcePoint" />
            <mxPoint x="350" y="670" as="targetPoint" />
          </mxGeometry>
        </mxCell>
        <mxCell id="S3ELQyczgTXHeuaoMsCH-21" value="" style="endArrow=classic;startArrow=classic;html=1;rounded=0;exitX=0;exitY=1;exitDx=0;exitDy=0;entryX=0.5;entryY=0;entryDx=0;entryDy=0;" edge="1" parent="1" source="S3ELQyczgTXHeuaoMsCH-14" target="S3ELQyczgTXHeuaoMsCH-24">
          <mxGeometry width="50" height="50" relative="1" as="geometry">
            <mxPoint x="280" y="650" as="sourcePoint" />
            <mxPoint x="160" y="670" as="targetPoint" />
          </mxGeometry>
        </mxCell>
        <mxCell id="S3ELQyczgTXHeuaoMsCH-23" value="&lt;div&gt;Instance &lt;br&gt;&lt;/div&gt;&lt;div&gt;1&lt;/div&gt;" style="whiteSpace=wrap;html=1;aspect=fixed;" vertex="1" parent="1">
          <mxGeometry x="40" y="660" width="60" height="60" as="geometry" />
        </mxCell>
        <mxCell id="S3ELQyczgTXHeuaoMsCH-24" value="&lt;div&gt;Instance&lt;/div&gt;&lt;div&gt;2&lt;/div&gt;" style="whiteSpace=wrap;html=1;aspect=fixed;" vertex="1" parent="1">
          <mxGeometry x="130" y="680" width="60" height="60" as="geometry" />
        </mxCell>
        <mxCell id="S3ELQyczgTXHeuaoMsCH-25" value="&lt;div&gt;Instance &lt;br&gt;&lt;/div&gt;&lt;div&gt;3&lt;/div&gt;" style="whiteSpace=wrap;html=1;aspect=fixed;" vertex="1" parent="1">
          <mxGeometry x="220" y="720" width="60" height="60" as="geometry" />
        </mxCell>
        <mxCell id="S3ELQyczgTXHeuaoMsCH-26" value="&lt;div&gt;Instance&lt;/div&gt;&lt;div&gt;4&lt;/div&gt;" style="whiteSpace=wrap;html=1;aspect=fixed;" vertex="1" parent="1">
          <mxGeometry x="330" y="680" width="60" height="60" as="geometry" />
        </mxCell>
        <mxCell id="S3ELQyczgTXHeuaoMsCH-27" value="&lt;div&gt;Instance&lt;/div&gt;&lt;div&gt;5&lt;/div&gt;" style="whiteSpace=wrap;html=1;aspect=fixed;" vertex="1" parent="1">
          <mxGeometry x="410" y="630" width="60" height="60" as="geometry" />
        </mxCell>
        <mxCell id="S3ELQyczgTXHeuaoMsCH-30" value="&lt;div&gt;&lt;b&gt;&lt;font style=&quot;font-size: 24px;&quot;&gt;Distributed System&lt;/font&gt;&lt;/b&gt;&lt;/div&gt;" style="text;html=1;align=center;verticalAlign=middle;whiteSpace=wrap;rounded=0;" vertex="1" parent="1">
          <mxGeometry x="550" y="630" width="60" height="30" as="geometry" />
        </mxCell>
        <mxCell id="S3ELQyczgTXHeuaoMsCH-31" value="&lt;font style=&quot;font-size: 18px;&quot;&gt;Tailscale Network&lt;/font&gt;" style="text;html=1;align=center;verticalAlign=middle;whiteSpace=wrap;rounded=0;" vertex="1" parent="1">
          <mxGeometry x="170" y="450" width="60" height="30" as="geometry" />
        </mxCell>
      </root>
    </mxGraphModel>
  </diagram>
</mxfile>
